HIERARCHY
ROOT Hips
{
	OFFSET 0.000000 0.000000 0.000000 
	CHANNELS 6 Xposition Yposition Zposition Zrotation Yrotation Xrotation
	JOINT LeftUpLeg
	{
		OFFSET 1.363060 -1.794630 0.839290 
		CHANNELS 3 Zrotation Yrotation Xrotation
		JOINT LeftLeg
		{
			OFFSET 2.448110 -6.726130 0.000000 
			CHANNELS 3 Zrotation Yrotation Xrotation
			JOINT LeftFoot
			{
				OFFSET 2.562200 -7.039590 0.000000 
				CHANNELS 3 Zrotation Yrotation Xrotation
				JOINT LeftToeBase
				{
					OFFSET 0.157640 -0.433110 2.322550 
					CHANNELS 3 Zrotation Yrotation Xrotation
					End Site
					{
						OFFSET 0.000000 0.000000 0.000000 
					}
				}
			}
		}
	}
	JOINT RightUpLeg
	{
		OFFSET -1.305520 -1.794630 0.839290 
		CHANNELS 3 Zrotation Yrotation Xrotation
		JOINT RightLeg
		{
			OFFSET -2.542530 -6.985550 0.000000 
			CHANNELS 3 Zrotation Yrotation Xrotation
			JOINT RightFoot
			{
				OFFSET -2.568260 -7.056230 0.000000 
				CHANNELS 3 Zrotation Yrotation Xrotation
				JOINT RightToeBase
				{
					OFFSET -0.164730 -0.452590 2.363150 
					CHANNELS 3 Zrotation Yrotation Xrotation
					End Site
					{
						OFFSET 0.000000 0.000000 0.000000 
					}
				}
			}
		}
	}
	JOINT Spine
	{
		OFFSET 0.028270 2.035590 -0.193380 
		CHANNELS 3 Zrotation Yrotation Xrotation
		JOINT Spine1
		{
			OFFSET 0.056720 2.048850 -0.042750 
			CHANNELS 3 Zrotation Yrotation Xrotation
			JOINT Neck1
			{
				OFFSET -0.054170 1.746240 0.172020 
				CHANNELS 3 Zrotation Yrotation Xrotation
				JOINT Head
				{
					OFFSET 0.104070 1.761360 -0.123970 
					CHANNELS 3 Zrotation Yrotation Xrotation
					End Site
					{
						OFFSET 0.000000 0.000000 0.000000 
					}
				}
			}
			JOINT LeftArm
			{
				OFFSET 3.362410 1.200890 -0.311210 
				CHANNELS 3 Zrotation Yrotation Xrotation
				JOINT LeftForeArm
				{
					OFFSET 4.983000 -0.000000 -0.000000 
					CHANNELS 3 Zrotation Yrotation Xrotation
					JOINT LeftHand
					{
						OFFSET 3.483560 -0.000000 -0.000000 
						CHANNELS 3 Zrotation Yrotation Xrotation
						JOINT LeftHandIndex1
						{
							OFFSET 0.715260 -0.000000 -0.000000 
							CHANNELS 3 Zrotation Yrotation Xrotation
							End Site
							{
								OFFSET 0.000000 0.000000 0.000000 
							}
						}
					}
				}
			}
			JOINT RightArm
			{
				OFFSET -3.136600 1.374050 -0.404650 
				CHANNELS 3 Zrotation Yrotation Xrotation
				JOINT RightForeArm
				{
					OFFSET -5.241900 -0.000000 -0.000000 
					CHANNELS 3 Zrotation Yrotation Xrotation
					JOINT RightHand
					{
						OFFSET -3.444170 -0.000000 -0.000000 
						CHANNELS 3 Zrotation Yrotation Xrotation
						JOINT RightHandIndex1
						{
							OFFSET -0.622530 -0.000000 -0.000000 
							CHANNELS 3 Zrotation Yrotation Xrotation
							End Site
							{
								OFFSET 0.000000 0.000000 0.000000 
							}
						}
					}
				}
			}
		}
	}
}
MOTION
Frames: 10
Frame Time: 0.041667
0.188459 17.598308 28.090591 -144.321258 -75.136596 157.179304 -8.348478 5.296771 -19.318634 -0.337080 9.794924 24.246252 -3.184269 12.196010 0.527853 1.981000 -8.826300 -25.253400 26.516518 -5.773016 -17.363971 1.617444 -7.732583 17.224375 -4.535437 16.657428 5.747183 -0.921100 6.114600 -17.117300 1.698668 1.513632 -3.686652 0.915902 0.495667 -7.009202 13.675073 -17.977919 9.955457 24.538700 -11.863800 4.746800 -82.580954 10.263407 49.650812 20.077850 -26.555730 -5.684821 0.908537 -0.566749 -36.434053 -7.125000 0.000000 0.000000 76.481057 -5.971340 34.448341 -9.475284 18.774882 -2.125224 -0.322398 0.383797 29.693952 7.125000 0.000000 0.000000 
0.188350 17.599399 28.080339 -144.409310 -75.036259 157.310060 -8.296076 5.468424 -19.391852 -0.329985 9.779447 24.239405 -3.121666 12.020550 0.546948 1.947400 -8.755700 -25.034200 26.562718 -5.436414 -17.247972 1.631177 -7.725681 17.176864 -4.506063 16.389205 5.693941 -0.938700 6.171300 -17.282100 1.692311 1.568606 -3.698235 0.906061 0.517349 -7.006321 13.649602 -17.912740 9.972904 24.481000 -11.821100 4.729900 -82.439887 10.240222 49.567984 20.003031 -26.475459 -5.638686 0.883194 -0.565816 -36.488381 -7.125000 0.000000 0.000000 76.490220 -6.012393 34.757731 -9.499730 18.805096 -2.127471 -0.319903 0.394212 29.790848 7.125000 0.000000 0.000000 
0.187586 17.597545 28.070851 -144.561783 -74.965932 157.457382 -8.271056 5.567883 -19.398022 -0.323421 9.772063 24.236375 -3.117781 12.007676 0.560505 1.978200 -8.820600 -25.235700 26.579327 -5.145899 -17.117243 1.634709 -7.736749 17.181112 -4.471783 16.057205 5.554551 -0.987800 6.325900 -17.733100 1.679020 1.637144 -3.703167 0.888040 0.546362 -7.010407 13.628657 -17.877685 9.955031 24.434500 -11.784200 4.684900 -82.265581 10.229943 49.576491 19.928047 -26.401236 -5.598579 0.869903 -0.560739 -36.297096 -7.125000 0.000000 0.000000 76.484187 -6.040237 34.778719 -9.505165 18.826358 -2.139483 -0.346819 0.413250 29.972557 7.125000 0.000000 0.000000 
0.191076 17.597436 28.063107 -144.697107 -74.918944 157.608844 -8.244239 5.607151 -19.417477 -0.321275 9.765314 24.229841 -3.105397 11.971593 0.566492 1.959800 -8.781800 -25.115000 26.590895 -4.997198 -17.093712 1.639151 -7.742535 17.185816 -4.465091 16.008933 5.561959 -0.972900 6.279500 -17.597400 1.672000 1.658230 -3.717875 0.876887 0.551205 -7.053085 13.619658 -17.818196 9.973498 24.460800 -11.760800 4.703400 -82.128527 10.208130 49.518166 19.823151 -26.283013 -5.536445 0.837996 -0.537900 -35.490713 -7.125000 0.000000 0.000000 76.489406 -6.040236 34.841319 -9.515875 18.839294 -2.141859 -0.347091 0.415124 30.182787 7.125000 0.000000 0.000000 
0.193585 17.596890 28.054927 -144.793519 -74.876623 157.717466 -8.215403 5.660843 -19.438463 -0.317852 9.758720 24.225039 -3.091925 11.932974 0.580761 1.959700 -8.781600 -25.114600 26.603867 -4.777181 -17.036283 1.641033 -7.758456 17.209893 -4.443336 15.812149 5.490384 -0.985600 6.319200 -17.713400 1.663770 1.690631 -3.728087 0.861787 0.562095 -7.079119 13.604043 -17.779738 9.973208 24.446000 -11.734300 4.696400 -81.973428 10.184397 49.496951 19.715997 -26.165272 -5.474746 0.805382 -0.510209 -34.899070 -7.125000 0.000000 0.000000 76.503997 -6.054206 34.942946 -9.540839 18.870649 -2.148513 -0.348194 0.420020 30.280349 7.125000 0.000000 0.000000 
0.197075 17.596236 28.046966 -144.859131 -74.857088 157.788018 -8.190239 5.697508 -19.457967 -0.314504 9.754911 24.224992 -3.079984 11.899603 0.600726 1.967000 -8.797100 -25.162600 26.608150 -4.549855 -16.974329 1.641731 -7.777136 17.242704 -4.416713 15.576583 5.414695 -0.998800 6.360000 -17.832600 1.658826 1.707261 -3.737260 0.858216 0.567475 -7.109553 13.588146 -17.750580 9.968493 24.432500 -11.711100 4.691600 -81.824631 10.156381 49.473174 19.587142 -26.023627 -5.403226 0.766467 -0.466010 -34.205496 -7.125000 0.000000 0.000000 76.513106 -6.061695 35.035349 -9.572813 18.909219 -2.156846 -0.347212 0.422322 30.344627 7.125000 0.000000 0.000000 
0.201764 17.595581 28.038677 -144.879041 -74.856160 157.811200 -8.160905 5.714540 -19.475285 -0.312198 9.751294 24.222735 -3.068098 11.867686 0.629968 1.975700 -8.815300 -25.219200 26.605368 -4.267603 -16.895486 1.642290 -7.800532 17.286083 -4.378905 15.255735 5.336823 -1.011100 6.397900 -17.943400 1.658217 1.707005 -3.745496 0.868523 0.567164 -7.143947 13.572141 -17.730030 9.958827 24.418000 -11.690400 4.686500 -81.682884 10.123960 49.427953 19.436051 -25.858592 -5.323607 0.720710 -0.405005 -33.481220 -7.125000 0.000000 0.000000 76.513747 -6.062980 35.146109 -9.613659 18.956920 -2.167203 -0.344652 0.422142 30.370975 7.125000 0.000000 0.000000 
0.207435 17.594600 28.030061 -144.851948 -74.877221 157.783265 -8.128897 5.708023 -19.487360 -0.311030 9.748039 24.218594 -3.058495 11.842908 0.667279 1.989200 -8.843500 -25.307100 26.604946 -4.015075 -16.836239 1.639843 -7.830883 17.349639 -4.340275 14.939389 5.255730 -1.021700 6.430300 -18.038100 1.660980 1.692044 -3.752415 0.891489 0.561967 -7.182460 13.557328 -17.721778 9.939759 24.402900 -11.672900 4.676100 -81.547666 10.090327 49.365347 19.272518 -25.682206 -5.242588 0.670403 -0.331571 -32.805158 -7.125000 0.000000 0.000000 76.502349 -6.060577 35.277061 -9.662703 19.013947 -2.179985 -0.341751 0.420343 30.350395 7.125000 0.000000 0.000000 
0.213870 17.593509 28.021446 -144.832239 -74.927424 157.748596 -8.106958 5.649228 -19.473745 -0.312914 9.747431 24.212701 -3.060001 11.849155 0.694853 2.005200 -8.876900 -25.411100 26.576817 -3.711553 -16.750190 1.635352 -7.867522 17.430564 -4.288271 14.525933 5.161035 -1.037900 6.479600 -18.182400 1.664061 1.663182 -3.756862 0.920478 0.552055 -7.224719 13.546085 -17.730736 9.909999 24.391900 -11.662300 4.660600 -81.415778 10.057832 49.278491 19.107451 -25.506378 -5.165851 0.613818 -0.249840 -32.215287 -7.125000 0.000000 0.000000 76.471940 -6.053895 35.425862 -9.718895 19.080550 -2.195466 -0.339444 0.416687 30.316908 7.125000 0.000000 0.000000 
0.220523 17.592091 28.013157 -144.823287 -75.006283 157.706361 -8.093695 5.509775 -19.417849 -0.318672 9.750708 24.206081 -3.081064 11.908857 0.698138 2.018400 -8.904200 -25.496100 26.524251 -3.400560 -16.649411 1.627694 -7.910197 17.530522 -4.227610 14.063265 5.052628 -1.066200 6.564400 -18.431200 1.667481 1.620240 -3.757971 0.953805 0.536906 -7.268778 13.537816 -17.760050 9.869980 24.387500 -11.660600 4.643100 -81.294187 10.025924 49.153554 18.949442 -25.340215 -5.097985 0.551336 -0.164509 -31.713299 -7.125000 0.000000 0.000000 76.421700 -6.046659 35.638229 -9.787389 19.163703 -2.214959 -0.338136 0.413481 30.201209 7.125000 0.000000 0.000000 
